<svg viewBox="0 0 48 48" xmlns="http://www.w3.org/2000/svg"><path d="m15.0769 28.7177v-9.4408l4.72 9.4408 4.72-9.4408v9.4408m5.339 0v-4.72m3.0682-4.72-3.0682 4.72-3.1862-4.72m5.4474 22.346a1.5393 1.5393 0 0 1 -2.08.72l-6.7571-3.1524a5.5324 5.5324 0 0 0 -10.0281-4.6761l-6.8514-3.1947a1.5807 1.5807 0 0 1 -.7645-2.1005c3.4547-7.4034 7.2281-15.5037 10.377-22.249l3.9929-1.471 1.3979 3.8926 3.88-1.4313 1.3979 3.8926 3.8505-1.42 1.3878 3.8623 3.88-1.4313 1.3979 3.8926 3.88-1.4313 1.434 3.9981z" fill="none" stroke="#000" stroke-linecap="round" stroke-linejoin="round"/></svg>